# AST/ASF file generated using VICON BodyLanguage
# -----------------------------------------------
:version 1.10
:name VICON
:units
  mass 1.0
  length 0.45
  angle deg
:documentation
   .ast/.asf automatically generated from VICON data using
   VICON BodyBuilder and BodyLanguage model FoxedUp or BRILLIANT.MOD
:root
   order TX TY TZ RX RY RZ
   axis XYZ
   position 0 0 0  
   orientation 0 0 0 
:bonedata
  begin
     id 1 
     name lhipjoint
     direction 0.541323 -0.757556 0.364798 
     length 2.47576 
     axis 0 0 0  XYZ
  end
  begin
     id 2 
     name lfemur
     direction 0.34202 -0.939693 0  
     length 7.46493  
     axis 0 0 20  XYZ
    dof rx ry rz
    limits (-160.0 20.0)
           (-70.0 70.0)
           (-60.0 70.0)
  end
  begin
     id 3 
     name ltibia
     direction 0.34202 -0.939693 0   
     length 7.73805   
     axis 0 0 20   XYZ
    dof rx
    limits (-10.0 170.0)
  end
  begin
     id 4 
     name lfoot
     direction 0.107174 -0.294458 0.949636   
     length 2.25864   
     axis -90 7.62852e-016 20   XYZ
    dof rx rz
    limits (-45.0 90.0)
           (-70.0 20.0)
  end
  begin
     id 5 
     name ltoes
     direction 1.53606e-011 -4.21934e-011 1   
     length 1.12451   
     axis -90 7.62852e-016 20   XYZ
    dof rx
    limits (-90.0 20.0)
  end
  begin
     id 6 
     name rhipjoint
     direction -0.524745 -0.766967 0.36933   
     length 2.44538  
     axis 0 0 0  XYZ 
  end
  begin
     id 7 
     name rfemur
     direction -0.34202 -0.939693 0   
     length 7.61604   
     axis 0 0 -20   XYZ
    dof rx ry rz
    limits (-160.0 20.0)
           (-70.0 70.0)
           (-70.0 60.0)
  end
  begin
     id 8 
     name rtibia
     direction -0.34202 -0.939693 0   
     length 7.61056   
     axis 0 0 -20   XYZ
    dof rx
    limits (-10.0 170.0)
 end
 begin
     id 9 
     name rfoot
     direction -0.12616 -0.346623 0.929482   
     length 2.46372  
     axis -90 -7.62852e-016 -20   XYZ
    dof rx rz
    limits (-45.0 90.0)
           (-20.0 70.0)
  end
  begin
     id 10 
     name rtoes
     direction -1.53531e-011 -4.22004e-011 1   
     length 1.21611   
     axis -90 -7.62852e-016 -20   XYZ
    dof rx
    limits (-90.0 20.0)
  end
  begin
     id 11 
     name lowerback
     direction -0.000778023 0.997293 -0.0735223   
     length 2.06139   
     axis 0 0 0   XYZ
    dof rx ry rz
    limits (-20.0 45.0)
           (-30.0 30.0)
           (-30.0 30.0)
  end
  begin
     id 12 
     name upperback
     direction 0.0222598 0.999722 -0.0078355   
     length 2.06383   
     axis 0 0 0   XYZ
    dof rx ry rz
    limits (-20.0 45.0)
           (-30.0 30.0)
           (-30.0 30.0)
  end
  begin
     id 13 
     name thorax
     direction 0.0219654 0.999405 0.0265994   
     length 2.07163   
     axis 0 0 0   XYZ
    dof rx ry rz
    limits (-20.0 45.0)
           (-30.0 30.0)
           (-30.0 30.0)
  end
  begin
     id 14 
     name lowerneck
     direction 0.0213282 0.988147 0.15202   
     length 1.75969   
     axis 0 0 0   XYZ
    dof rx ry rz
    limits (-20.0 45.0)
           (-30.0 30.0)
           (-30.0 30.0)
  end
  begin
     id 15 
     name upperneck
     direction -0.0546456 0.982624 -0.177379   
     length 1.79244   
     axis 0 0 0   XYZ
    dof rx ry rz
    limits (-20.0 45.0)
           (-30.0 30.0)
           (-30.0 30.0)
  end
  begin
     id 16
     name head
     direction -0.0199987 0.996855 -0.076686  
     length 1.80555  
     axis 0 0 0   XYZ
    dof rx ry rz
    limits (-20.0 45.0)
           (-30.0 30.0)
           (-30.0 30.0)
  end
  begin
     id 17 
     name lclavicle
     direction 0.929565 0.363219 -0.063096  
     length 3.55722  
     axis 0 0 0   XYZ
    dof ry rz
    limits (-20.0 10.0)
           (0.0 20.0)
  end
  begin
     id 18 
     name lhumerus
     direction 1 -4.48993e-011 -2.36203e-027   
     length 4.92785   
     axis 180 -30 -90   XYZ
    dof rx ry rz
    limits (-60.0 90.0)
           (-90.0 90.0)
           (-90.0 90.0)
  end
  begin
     id 19
     name lradius
     direction 1 -4.48947e-011 2.02997e-027   
     length 3.44052   
     axis 180 -30 -90   XYZ
    dof rx
    limits (-10.0 170.0)
  end
  begin
     id 20
     name lwrist
     direction 1 -4.48962e-011 1.45991e-027   
     length 1.72026   
     axis 1.49639e-024 90 90   XYZ
    dof ry
    limits (-180.0 0.0)
 end
  begin
     id 21 
     name lhand
     direction 1 -4.48984e-011 2.91906e-027   
     length 0.654326   
     axis -1.863e-015 90 90   XYZ
    dof rx rz
    limits (-90.0 90.0)
           (-45.0 45.0)
  end
  begin
     id 22 
     name lfingers
     direction 1 -4.48961e-011 5.83968e-027   
     length 0.527534   
     axis -3.72598e-015 90 90   XYZ
    dof rx
    limits (0.0 90.0)
  end
  begin
     id 23
     name lthumb
     direction 0.707107 -6.34963e-011 0.707107   
     length 0.757437   
     axis -90 45 -6.68868e-015   XYZ
    dof rx rz
    limits (-45.0 45.0)
           (-45.0 45.0)
  end
  begin
     id 24 
     name rclavicle
     direction -0.902944 0.422599 -0.0781198   
     length 3.54432  
     axis 0 0 0   XYZ 
    dof ry rz
    limits (-10.0 20.0)
           (-20.0 0.0)
  end
  begin
     id 25 
     name rhumerus
     direction -1 -4.48953e-011 -4.75835e-028  
     length 5.09181   
     axis 180 30 90   XYZ
    dof rx ry rz
    limits (-90.0 60.0)
           (-90.0 90.0)
           (-90.0 90.0)
  end
  begin
     id 26 
     name rradius
     direction -1 -4.48986e-011 -3.25889e-027   
     length 3.49865   
     axis 180 30 90   XYZ
    dof rx
    limits (-10.0 170.0)
  end
  begin
     id 27 
     name rwrist
     direction -1 -4.48963e-011 1.45989e-027   
     length 1.74933   
     axis 1.49639e-024 -90 -90   XYZ
    dof ry
    limits (-180.0 0.0)
  end
  begin
     id 28
     name rhand
     direction -1 -4.49003e-011 2.91844e-027   
     length 0.66641   
     axis -1.863e-015 -90 -90   XYZ
    dof rx rz
    limits (-90.0 90.0)
           (-45.0 45.0)
  end
  begin
     id 29
     name rfingers
     direction -1 -4.48973e-011 5.83886e-027   
     length 0.537277   
     axis -3.72598e-015 -90 -90   XYZ
    dof rx
    limits (0.0 90.0)
  end
  begin
     id 30
     name rthumb
     direction -0.707107 -6.34976e-011 0.707107   
     length 0.771425   
     axis -90 -45 6.68868e-015   XYZ
    dof rx rz
    limits (-45.0 45.0)
           (-45.0 45.0)
  end
:hierarchy
  begin
    root lhipjoint rhipjoint lowerback
    lhipjoint lfemur
    lfemur ltibia
    ltibia lfoot
    lfoot ltoes
    rhipjoint rfemur
    rfemur rtibia
    rtibia rfoot
    rfoot rtoes
    lowerback upperback
    upperback thorax
    thorax lowerneck lclavicle rclavicle
    lowerneck upperneck
    upperneck head
    lclavicle lhumerus
    lhumerus lradius
    lradius lwrist
    lwrist lhand lthumb
    lhand lfingers
    rclavicle rhumerus
    rhumerus rradius
    rradius rwrist
    rwrist rhand rthumb
    rhand rfingers
  end

#!OML:ASF H:\LiuWeirdWalks\Patient Classification 1\Patient 1\Session 1\male.ASF
:FULLY-SPECIFIED
:DEGREES
48
root 0.227025 19.0476 -17.0074 6.52403 5.52297 -4.05691
lowerback 4.54643 2.45969 2.18785
upperback -3.1614 3.53106 1.48263
thorax -5.79577 1.69265 -0.0180693
lowerneck -18.8544 0.397249 8.13447
upperneck 10.1898 -1.14568 -2.66475
head 6.09227 -0.447843 -2.28271
rclavicle -6.89534e-016 -1.36167e-014
rhumerus -36.6827 13.9724 -92.9587
rradius 44.2381
rwrist -7.45343
rhand -17.1178 2.76172
rfingers 7.12502
rthumb 9.12167 -27.021
lclavicle -6.89534e-016 -1.36167e-014
lhumerus -44.0667 -4.20479 87.8184
lradius 55.0512
lwrist 16.2582
lhand -16.4495 -2.01009
lfingers 7.12502
lthumb 9.76654 27.7434
rfemur -10.5674 -17.8701 22.8807
rtibia 49.7443
rfoot -2.11255 -32.1296
rtoes 4.66903
lfemur -14.2373 -0.849775 -15.0821
ltibia 31.6382
lfoot 6.78281 11.4555
ltoes -23.7816
49
root 0.214216 19.1735 -16.8211 6.40457 5.66468 -3.82251
lowerback 4.61322 2.04789 1.59549
upperback -3.1631 2.9502 1.66851
thorax -5.88217 1.4327 0.556106
lowerneck -19.3168 1.17332 9.86222
upperneck 10.5214 -0.413272 -3.90377
head 6.30909 -0.123732 -2.89296
rclavicle 1.01194e-014 2.3059e-014
rhumerus -36.3282 13.8695 -92.3965
rradius 44.6037
rwrist -8.14366
rhand -16.6037 2.35765
rfingers 7.12502
rthumb 9.61775 -27.4028
lclavicle 1.01194e-014 2.3059e-014
lhumerus -44.4591 -5.33937 88.4292
lradius 55.2384
lwrist 16.0333
lhand -14.7508 -2.41669
lfingers 7.12502
lthumb 11.4051 27.2531
rfemur -12.1676 -18.0246 22.9965
rtibia 49.2705
rfoot -3.05278 -31.6953
rtoes 3.84776
lfemur -13.6588 -1.09081 -15.2306
ltibia 31.2637
lfoot 9.62756 11.3995
ltoes -23.8555
50
root 0.200229 19.29 -16.6372 6.28107 5.90213 -3.5902
lowerback 4.72631 1.60955 1.03086
upperback -3.13918 2.33511 1.85391
thorax -5.95128 1.15543 1.1205
lowerneck -19.6644 1.75065 11.0887
upperneck 10.6422 0.123553 -4.72884
head 6.44475 0.115058 -3.30623
rclavicle -2.17234e-014 7.55382e-015
rhumerus -35.9681 13.8195 -91.8285
rradius 45.0588
rwrist -8.86486
rhand -16.1946 2.05577
rfingers 7.12502
rthumb 10.0125 -27.6861
lclavicle -2.17234e-014 7.55382e-015
lhumerus -44.8427 -6.53079 89.0379
lradius 55.5412
lwrist 15.8788
lhand -13.0871 -2.83278
lfingers 7.12502
lthumb 13.0093 26.7416
rfemur -13.7418 -18.1545 23.1208
rtibia 48.6902
rfoot -3.96489 -31.1115
rtoes 2.94091
lfemur -13.1721 -1.38968 -15.3482
ltibia 31.013
lfoot 12.3375 11.2962
ltoes -23.3311
51
root 0.186668 19.3974 -16.4548 6.15913 6.22637 -3.34967
lowerback 4.86971 1.15927 0.502686
upperback -3.10253 1.70498 2.02956
thorax -6.00686 0.869405 1.65934
lowerneck -19.9134 2.07093 11.7271
upperneck 10.6364 0.399933 -5.04639
head 6.50836 0.244903 -3.48401
rclavicle 1.77291e-014 5.56597e-015
rhumerus -35.6232 13.785 -91.2474
rradius 45.6037
rwrist -9.62525
rhand -15.837 1.81319
rfingers 7.12502
rthumb 10.3574 -27.9117
lclavicle 1.77291e-014 5.56597e-015
lhumerus -45.2158 -7.80787 89.657
lradius 55.9135
lwrist 15.7616
lhand -11.5054 -3.29734
lfingers 7.12502
lthumb 14.5336 26.1736
rfemur -15.2845 -18.2761 23.2223
rtibia 48.0019
rfoot -4.79296 -30.4047
rtoes 1.93013
lfemur -12.7434 -1.68262 -15.4668
ltibia 30.8527
lfoot 14.7921 11.1023
ltoes -22.267
52
root 0.174317 19.4963 -16.2738 6.0397 6.62828 -3.11198
lowerback 5.04404 0.697468 0.0254751
upperback -3.0583 1.062 2.20635
thorax -6.05554 0.57514 2.17562
lowerneck -20.109 2.11148 11.6838
upperneck 10.5738 0.399287 -4.77773
head 6.51918 0.263213 -3.3876
rclavicle -6.44808e-015 1.59028e-015
rhumerus -35.2968 13.782 -90.6392
rradius 46.2397
rwrist -10.4419
rhand -15.5107 1.63916
rfingers 7.12502
rthumb 10.6722 -28.0698
lclavicle -6.44808e-015 1.59028e-015
lhumerus -45.58 -9.14921 90.2969
lradius 56.3321
lwrist 15.6668
lhand -10.1077 -3.84429
lfingers 7.12502
lthumb 15.88 25.5246
rfemur -16.7786 -18.3728 23.3017
rtibia 47.1938
rfoot -5.55959 -29.6031
rtoes 0.85911
lfemur -12.3349 -1.94509 -15.5889
ltibia 30.7338
lfoot 16.9082 10.8089
ltoes -20.7599
53
root 0.163459 19.5875 -16.0941 5.92898 7.09236 -2.88295
lowerback 5.24003 0.238332 -0.390289
upperback -3.01739 0.425909 2.38179
thorax -6.10541 0.28192 2.65899
lowerneck -20.2302 1.97319 11.2716
upperneck 10.4852 0.225504 -4.22493
head 6.49413 0.20803 -3.15707
rclavicle 8.92046e-015 9.14409e-015
rhumerus -35.0109 13.7686 -89.9949
rradius 46.9812
rwrist -11.303
rhand -15.1255 1.41408
rfingers 7.12502
rthumb 11.0437 -28.2754
lclavicle 8.92046e-015 9.14409e-015
lhumerus -45.9376 -10.5854 90.9742
lradius 56.7791
lwrist 15.6366
lhand -8.92964 -4.46634
lfingers 7.12502
lthumb 17.0142 24.8085
rfemur -18.2241 -18.438 23.3591
rtibia 46.2607
rfoot -6.25499 -28.7566
rtoes -0.263626
lfemur -11.9288 -2.15673 -15.7174
ltibia 30.6216
lfoot 18.6045 10.4072
ltoes -19.0501
54
root 0.154423 19.6712 -15.9152 5.8209 7.59953 -2.66516
lowerback 5.45246 -0.20726 -0.74294
upperback -2.97278 -0.18874 2.55377
thorax -6.14903 -0.00332177 3.10455
lowerneck -20.341 1.82875 10.8565
upperneck 10.3636 0.0542459 -3.71846
head 6.45857 0.149234 -2.94145
rclavicle 2.32081e-014 6.75868e-015
rhumerus -34.7339 13.7367 -89.308
rradius 47.7941
rwrist -12.1432
rhand -14.7161 1.17492
rfingers 7.12502
rthumb 11.4386 -28.493
lclavicle 2.32081e-014 6.75868e-015
lhumerus -46.2675 -12.1422 91.696
lradius 57.2351
lwrist 15.7255
lhand -8.02748 -5.14885
lfingers 7.12502
lthumb 17.8824 24.049
rfemur -19.5993 -18.4522 23.3833
rtibia 45.2045
rfoot -6.92264 -27.8962
rtoes -1.39529
lfemur -11.4991 -2.32696 -15.8554
ltibia 30.4871
lfoot 19.8596 9.95639
ltoes -17.301
55
root 0.146694 19.747 -15.7372 5.71877 8.13215 -2.45255
lowerback 5.68285 -0.632963 -1.04936
upperback -2.93055 -0.77453 2.72079
thorax -6.19662 -0.276128 3.51937
lowerneck -20.4435 1.65307 10.4231
upperneck 10.2407 -0.143419 -3.26321
head 6.4209 0.0725839 -2.74339
rclavicle -7.55382e-015 -5.1684e-015
rhumerus -34.4951 13.6839 -88.5841
rradius 48.6997
rwrist -12.9736
rhand -14.3194 0.93923
rfingers 7.12502
rthumb 11.8211 -28.7071
lclavicle -7.55382e-015 -5.1684e-015
lhumerus -46.5794 -13.8106 92.4485
lradius 57.7249
lwrist 15.8679
lhand -7.33905 -5.70824
lfingers 7.12502
lthumb 18.5447 23.4278
rfemur -20.9082 -18.39 23.3655
rtibia 44.0343
rfoot -7.52328 -27.083
rtoes -2.57698
lfemur -11.0372 -2.53285 -16.0103
ltibia 30.3057
lfoot 20.6352 9.57058
ltoes -15.7747
56
root 0.139963 19.8139 -15.5595 5.61819 8.66961 -2.2352
lowerback 5.91532 -1.02864 -1.33188
upperback -2.88203 -1.31978 2.88223
thorax -6.23256 -0.530163 3.91343
lowerneck -20.513 1.43026 9.95427
upperneck 10.074 -0.383396 -2.84388
head 6.36262 -0.0300183 -2.5562
rclavicle 6.28657e-015 -2.94201e-014
rhumerus -34.2853 13.5984 -87.8181
rradius 49.6873
rwrist -13.7774
rhand -13.944 0.687631
rfingers 7.12502
rthumb 12.1831 -28.9376
lclavicle 6.28657e-015 -2.94201e-014
lhumerus -46.8653 -15.5752 93.2198
lradius 58.2801
lwrist 16.0461
lhand -6.75587 -6.00522
lfingers 7.12502
lthumb 19.1056 23.0764
rfemur -22.1332 -18.2243 23.2795
rtibia 42.7709
rfoot -8.14145 -26.3373
rtoes -3.65985
lfemur -10.5298 -2.82377 -16.1936
ltibia 30.0562
lfoot 20.9578 9.26428
ltoes -14.654
57
root 0.133495 19.8713 -15.3817 5.51348 9.18586 -2.00998
lowerback 6.14922 -1.38507 -1.61428
upperback -2.8223 -1.81421 3.03676
thorax -6.25326 -0.759662 4.29699
lowerneck -20.5525 1.17586 9.45258
upperneck 9.8679 -0.64841 -2.44472
head 6.28739 -0.148663 -2.37309
rclavicle -7.87684e-015 7.55382e-015
rhumerus -34.1046 13.4781 -87.0166
rradius 50.7595
rwrist -14.5363
rhand -13.6536 0.477647
rfingers 7.12502
rthumb 12.4631 -29.1307
lclavicle -7.87684e-015 7.55382e-015
lhumerus -47.115 -17.402 93.9717
lradius 58.9246
lwrist 16.2062
lhand -6.15017 -5.94849
lfingers 7.12502
lthumb 19.688 23.0745
rfemur -23.2724 -17.9126 23.1126
rtibia 41.4384
rfoot -8.76733 -25.7043
rtoes -4.68905
lfemur -9.96552 -3.23371 -16.4058
ltibia 29.714
lfoot 20.8589 9.01629
ltoes -13.9443
58
root 0.127396 19.9179 -15.2036 5.4109 9.68191 -1.75582
lowerback 6.37505 -1.70469 -1.91843
upperback -2.75725 -2.26324 3.17917
thorax -6.25979 -0.966608 4.67678
lowerneck -20.52 0.905582 8.92742
upperneck 9.58024 -0.916699 -2.05786
head 6.17666 -0.272829 -2.18989
rclavicle 2.60656e-014 -4.17448e-014
rhumerus -33.9737 13.3301 -86.1825
rradius 51.9176
rwrist -15.2415
rhand -13.4344 0.34748
rfingers 7.12502
rthumb 12.6744 -29.2479
lclavicle 2.60656e-014 -4.17448e-014
lhumerus -47.3231 -19.2412 94.6669
lradius 59.6497
lwrist 16.3068
lhand -5.36155 -5.61058
lfingers 7.12502
lthumb 20.446 23.3329
rfemur -24.3344 -17.4697 22.8328
rtibia 40.0664
rfoot -9.37928 -25.1817
rtoes -5.65958
lfemur -9.35071 -3.78462 -16.6697
ltibia 29.2565
lfoot 20.4002 8.76227
ltoes -13.6113
59
root 0.121666 19.9536 -15.0241 5.29969 10.1483 -1.4605
lowerback 6.58296 -1.98594 -2.26303
upperback -2.67504 -2.66696 3.30403
thorax -6.23427 -1.15124 5.0561
lowerneck -20.46 0.617464 8.38184
upperneck 9.28038 -1.19848 -1.67835
head 6.05975 -0.405139 -2.00728
rclavicle 2.34566e-014 -7.15625e-015
rhumerus -33.8891 13.1424 -85.3194
rradius 53.1568
rwrist -15.8591
rhand -13.2523 0.251187
rfingers 7.12502
rthumb 12.85 -29.3333
lclavicle 2.34566e-014 -7.15625e-015
lhumerus -47.4573 -21.0593 95.2738
lradius 60.4141
lwrist 16.3065
lhand -4.40802 -5.20342
lfingers 7.12502
lthumb 21.3621 23.6391
rfemur -25.3104 -16.8923 22.415
rtibia 38.6797
rfoot -9.96643 -24.7857
rtoes -6.54697
lfemur -8.67066 -4.43978 -16.9963
ltibia 28.665
lfoot 19.6272 8.37887
ltoes -13.5876
60
root 0.116192 19.9776 -14.8429 5.1812 10.5743 -1.13535
lowerback 6.76277 -2.22739 -2.63722
upperback -2.57794 -3.02226 3.41185
thorax -6.17481 -1.31285 5.42773
lowerneck -20.4774 0.41846 8.00856
upperneck 9.04107 -1.39106 -1.46986
head 5.9791 -0.500866 -1.89903
rclavicle -4.69629e-014 2.8625e-014
rhumerus -33.8281 12.894 -84.4356
rradius 54.4418
rwrist -16.3855
rhand -13.1305 0.253016
rfingers 7.12502
rthumb 12.9674 -29.324
lclavicle -4.69629e-014 2.8625e-014
lhumerus -47.5151 -22.8206 95.7728
lradius 61.1967
lwrist 16.1639
lhand -3.37881 -4.94299
lfingers 7.12502
lthumb 22.3504 23.7842
rfemur -26.2106 -16.1632 21.8684
rtibia 37.3044
rfoot -10.5338 -24.5423
rtoes -7.3592
lfemur -7.93424 -5.1579 -17.3708
ltibia 27.9311
lfoot 18.6734 7.81397
ltoes -13.6577
61
root 0.110813 19.9898 -14.6599 5.06431 10.9622 -0.785477
lowerback 6.90608 -2.43613 -3.03385
upperback -2.47656 -3.3376 3.50032
thorax -6.08847 -1.45592 5.78534
lowerneck -20.4422 0.217087 7.61841
upperneck 8.77479 -1.57923 -1.24267
head 5.8833 -0.593954 -1.78107
rclavicle -2.99668e-014 3.4191e-014
rhumerus -33.8137 12.5851 -83.5524
rradius 55.7747
rwrist -16.8088
rhand -13.0402 0.280252
rfingers 7.12502
rthumb 13.0545 -29.2912
lclavicle -2.99668e-014 3.4191e-014
lhumerus -47.4991 -24.5053 96.1523
lradius 61.971
lwrist 15.9118
lhand -2.3606 -4.94656
lfingers 7.12502
lthumb 23.3275 23.66
rfemur -27.0614 -15.291 21.2058
rtibia 35.9636
rfoot -11.0729 -24.4875
rtoes -8.0822
lfemur -7.16187 -5.8904 -17.7835
ltibia 27.0579
lfoot 17.5975 7.01264
ltoes -13.8066
62
root 0.105596 19.9895 -14.4755 4.9535 11.2932 -0.428198
lowerback 7.00705 -2.60616 -3.42964
upperback -2.36563 -3.60215 3.56984
thorax -5.9701 -1.57649 6.11371
lowerneck -20.4592 0.0243456 7.25165
upperneck 8.56796 -1.76406 -1.03882
head 5.81591 -0.684809 -1.67488
rclavicle 5.26779e-014 -1.59028e-015
rhumerus -33.8262 12.2005 -82.6754
rradius 57.1405
rwrist -17.1139
rhand -12.9954 0.332704
rfingers 7.12502
rthumb 13.0976 -29.236
lclavicle 5.26779e-014 -1.59028e-015
lhumerus -47.3862 -26.122 96.4054
lradius 62.7333
lwrist 15.5807
lhand -1.46275 -5.20344
lfingers 7.12502
lthumb 24.1886 23.2912
rfemur -27.8846 -14.2683 20.4501
rtibia 34.6822
rfoot -11.6154 -24.6382
rtoes -8.67971
lfemur -6.37169 -6.57394 -18.2164
ltibia 26.0647
lfoot 16.4668 5.95668
ltoes -14.0653
